<svg xmlns="http://www.w3.org/2000/svg" viewBox="0 0 2141.85 227.75"><defs><style>.cls-1{fill:#00d3a9;}.cls-2{fill:#00b39f;}.cls-3{fill:#fff;}</style></defs><g id="Layer_2" data-name="Layer 2"><g id="Layer_1-2" data-name="Layer 1"><polygon class="cls-1" points="117.22 53.68 117.22 108.07 164.36 80.78 117.22 53.68"/><polygon class="cls-1" points="117.22 119.45 117.22 174.1 164.79 146.9 117.22 119.45"/><polygon class="cls-2" points="110.43 107.69 110.43 54.13 63.87 80.83 110.43 107.69"/><path class="cls-2" d="M17,173.91a114.57,114.57,0,0,0,36.11,36.35V153Z"/><polygon class="cls-2" points="110.43 173.84 110.43 119.84 63.76 146.86 110.43 173.84"/><polygon class="cls-1" points="59.94 206.85 107.21 179.82 59.94 152.5 59.94 206.85"/><polygon class="cls-2" points="168.02 207.14 168.02 152.87 120.83 179.85 168.02 207.14"/><path class="cls-2" d="M214.26,167.61a113.18,113.18,0,0,0,13.35-48.81l-49.19,28.12Z"/><polygon class="cls-1" points="174.81 141.17 222.24 114.05 174.81 86.78 174.81 141.17"/><polygon class="cls-2" points="168.02 75.05 168.02 21.12 121.05 48.05 168.02 75.05"/><polygon class="cls-2" points="168.02 140.93 168.02 86.5 120.94 113.76 168.02 140.93"/><polygon class="cls-2" points="113.82 227.75 113.83 227.75 113.82 227.75 113.82 227.75"/><polygon class="cls-1" points="59.94 86.4 59.94 141.23 107.37 113.77 59.94 86.4"/><path class="cls-2" d="M110.43,0a113.42,113.42,0,0,0-50,13.21l50,28.74Z"/><polygon class="cls-1" points="59.94 20.75 59.94 75.25 107.41 48.04 59.94 20.75"/><path class="cls-2" d="M53.15,17.44A114.43,114.43,0,0,0,17,53.8L53.15,74.64Z"/><path class="cls-1" d="M167.71,13.48A113.23,113.23,0,0,0,117.22,0V42.42Z"/><path class="cls-1" d="M0,117.85a113.38,113.38,0,0,0,13.62,50.2L50.2,146.87Z"/><path class="cls-1" d="M13.61,59.66a113.27,113.27,0,0,0-13.6,50l50.24-28.8Z"/><path class="cls-2" d="M60.35,214.43a113.11,113.11,0,0,0,50.08,13.26V185.8Z"/><path class="cls-1" d="M210.71,53.94a114.48,114.48,0,0,0-35.9-36.3V74.73Z"/><path class="cls-1" d="M174.81,210.06a114.39,114.39,0,0,0,36.06-36.57l-36.06-20.81Z"/><path class="cls-2" d="M227.63,109.32a113.26,113.26,0,0,0-13.52-49.51L177.94,80.75Z"/><path class="cls-1" d="M117.22,227.69a113.23,113.23,0,0,0,50-13.2l-50-28.88Z"/><polygon class="cls-2" points="53.15 140.73 53.15 86.97 6.45 113.74 53.15 140.73"/><polygon class="cls-3" points="939.48 79.06 939.48 84.63 939.48 110.85 939.48 142.83 939.48 189.51 1063.76 189.51 1063.76 163.29 965.7 163.29 965.7 142.83 965.7 137.07 1041.03 137.07 1041.03 110.85 965.7 110.85 965.7 84.63 1063.76 84.63 1063.76 58.41 939.48 58.41 939.48 79.06"/><polygon class="cls-3" points="461.42 79.06 461.42 84.63 461.42 110.85 461.42 142.83 461.42 189.51 585.7 189.51 585.7 163.29 487.64 163.29 487.64 142.83 487.64 137.07 562.98 137.07 562.98 110.85 487.64 110.85 487.64 84.63 585.7 84.63 585.7 58.41 461.42 58.41 461.42 79.06"/><path class="cls-3" d="M757.73,155.25A32.72,32.72,0,0,1,755,168.53a33.63,33.63,0,0,1-7.43,10.92,36,36,0,0,1-10.92,7.35,33.57,33.57,0,0,1-13.37,2.71H600.6V161.89H723.3a6.56,6.56,0,0,0,6.64-6.64V144.59A6.56,6.56,0,0,0,723.3,138H635a33,33,0,0,1-13.28-2.71,34.78,34.78,0,0,1-18.43-18.44,32.84,32.84,0,0,1-2.71-13.29V92.85a33.36,33.36,0,0,1,2.71-13.37,35,35,0,0,1,18.43-18.36A33,33,0,0,1,635,58.41H757.73V86.2H635a6.59,6.59,0,0,0-6.64,6.65v10.66a6.57,6.57,0,0,0,6.64,6.64H723.3a33.4,33.4,0,0,1,13.37,2.71A35.35,35.35,0,0,1,755,131.21a33.44,33.44,0,0,1,2.71,13.38Z"/><path class="cls-3" d="M923.08,189.51h-25V138H800.6v51.56h-25V110.15H898.09V58.41h25ZM800.6,97.84h-25V58.41h25Z"/><polygon class="cls-3" points="1279.85 104.3 1247.08 58.41 1214.31 58.41 1266.74 137.07 1266.74 189.51 1292.96 189.51 1292.96 137.07 1345.4 58.41 1313.04 58.41 1279.85 104.3"/><path class="cls-3" d="M1108.35,83.41h67.24v27.27h-54.16v25h12.42l47.55,53.83h32.37l-47.55-53.83h18.55a20.36,20.36,0,0,0,20.36-20.36V78.77a20.36,20.36,0,0,0-20.36-20.36h-102.1v131.1h26.22Z"/><path class="cls-3" d="M438.46,80.18a35.63,35.63,0,0,0-32.68-21.77H277.3v131.1h27.8V86.27c38.08-.19,101.93-.69,103.65.55,9.65-2.91,2.77,98.92,4.72,102.69h27.79C440.26,180.4,444,86.11,438.46,80.18Z"/><rect class="cls-3" x="345.3" y="100.77" width="27.79" height="88.74"/><polygon class="cls-3" points="1608.71 52.35 1582.56 52.35 1582.56 183.34 1706.74 183.34 1706.74 157.18 1608.71 157.18 1608.71 52.35"/><path class="cls-3" d="M1460.43,161.15h104.29v22.19H1460.43"/><path class="cls-3" d="M1433.34,161.15a28,28,0,0,0,27.58,22.19V161.15Z"/><path class="cls-3" d="M1468.46,52.35a41.82,41.82,0,0,0-13.81,2.25,37.62,37.62,0,0,0-11.42,6.08,30.3,30.3,0,0,0-7.44,8.62,30.66,30.66,0,0,0-3,12.69v66.77h28.17v-68a4.85,4.85,0,0,1,.64-2.4,6.27,6.27,0,0,1,1.66-2,9.06,9.06,0,0,1,2.45-1.32,9.8,9.8,0,0,1,3-.49h96.26V52.35Z"/><path class="cls-3" d="M1743.48,111.58V84.78a6.81,6.81,0,0,1,6.81-6.81H1821a6.81,6.81,0,0,1,6.81,6.81h0v26.8h23.37V75.13a22.88,22.88,0,0,0-22.83-22.78h-85.39a22.88,22.88,0,0,0-22.83,22.78v36.45Z"/><path class="cls-3" d="M1827.79,124.12v26.79a6.85,6.85,0,0,1-6.81,6.86h-70.69a6.85,6.85,0,0,1-6.81-6.86V124.12h-23.37v36.44a22.88,22.88,0,0,0,22.83,22.78h85.39a22.88,22.88,0,0,0,22.83-22.78V124.12Z"/><path class="cls-3" d="M1976.52,52.35H1976v98.56a6.85,6.85,0,0,1-6.81,6.86h-70.69a6.86,6.86,0,0,1-6.86-6.86V52.35h-.49a22.88,22.88,0,0,0-22.83,22.78v85.43a22.88,22.88,0,0,0,22.83,22.78h85.39a22.88,22.88,0,0,0,22.83-22.78V75.13A22.89,22.89,0,0,0,1976.52,52.35Z"/><path class="cls-3" d="M2119,52.35h-85.43a22.83,22.83,0,0,0-22.78,22.78V183.34H2119a22.83,22.83,0,0,0,22.83-22.78V75.13A22.83,22.83,0,0,0,2119,52.35Zm-.54,98.56a6.86,6.86,0,0,1-6.85,6.86h-77.55v-73a6.85,6.85,0,0,1,6.86-6.81h70.64a6.86,6.86,0,0,1,6.86,6.81Z"/></g></g></svg>