<svg width="90" height="90" viewBox="0 0 90 92" fill="none" xmlns="http://www.w3.org/2000/svg">
<circle cx="45" cy="45.5" r="45" fill="#00B39F"/>
<g filter="url(#filter0_d_16047_38755)">
<circle cx="44.9" cy="44.9" r="38.9" fill="#252E31"/>
</g>
<path d="M44.9 6L48.9662 6.2131L52.9878 6.85006L56.9208 7.9039L60.7221 9.36308L64.35 11.2116L67.7648 13.4292L70.9292 15.9917L73.8083 18.8708L76.3708 22.0352L78.5884 25.45L80.4369 29.0779L81.8961 32.8792L82.9499 36.8122L83.5869 40.8338L83.8 44.9L83.5869 48.9662L82.9499 52.9878L81.8961 56.9208L80.4369 60.7221L78.5884 64.35L76.3708 67.7648L73.8083 70.9292L70.9292 73.8083L67.7648 76.3708L64.35 78.5884L60.7221 80.4369L56.9208 81.8961L52.9878 82.9499L48.9662 83.5869L44.9 83.8L40.8338 83.5869L36.8122 82.9499L32.8792 81.8961L29.0779 80.4369L25.45 78.5884L22.0352 76.3708L18.8708 73.8083L15.9917 70.9292L13.4292 67.7648L11.2116 64.35L9.36308 60.7221L7.9039 56.9208L6.85006 52.9878L6.2131 48.9662L6 44.9L6.2131 40.8338L6.85006 36.8122L7.9039 32.8792L9.36308 29.0779L11.2116 25.45L13.4292 22.0352L15.9917 18.8708L18.8708 15.9917L22.0352 13.4292L25.45 11.2116L29.0779 9.36308L32.8792 7.9039L36.8122 6.85006L40.8338 6.2131L44.9 6Z" fill="url(#paint0_linear_16047_38755)"/>
<g clip-path="url(#clip0_16047_38755)">
<path d="M53.4126 32.3908C56.1842 32.3685 58.3523 34.5495 58.3523 37.3314C58.3523 40.0021 56.1172 42.2276 53.4349 42.2276C50.6857 42.2276 48.4728 40.0688 48.4281 37.3092C48.4058 34.6163 50.641 32.413 53.4126 32.3908Z" fill="#00D3A9"/>
<path d="M53.9714 48.7674C52.6526 49.8579 51.2445 50.8594 49.9034 51.9277C49.3222 52.395 48.9199 52.3728 48.4058 51.8387C45.9694 49.3683 43.466 46.9425 41.0297 44.4722C40.4038 43.849 39.9792 43.8268 39.3086 44.3832C36.0229 47.076 32.6925 49.7689 29.3621 52.4396V61.5642H47.3776L53.0326 61.5197L53.0773 61.5642H61.6381V53.0404L61.5934 52.9959V52.8624C59.6935 51.5048 57.7936 50.125 55.9384 48.7452C55.2231 48.2111 54.6867 48.1666 53.9714 48.7674Z" fill="#00D3A9"/>
<g filter="url(#filter1_d_16047_38755)">
<path d="M63.0684 64.97H27.9314C26.3892 64.97 25.1375 63.7682 25.1375 62.2994V28.6941C25.1375 27.2252 26.3892 26.0234 27.9314 26.0234H63.0684C64.6107 26.0234 65.8624 27.2252 65.8624 28.6941V62.2994C65.8624 63.7682 64.6107 64.97 63.0684 64.97Z" stroke="#00B39F" stroke-width="3" stroke-miterlimit="10"/>
</g>
</g>
<defs>
<filter id="filter0_d_16047_38755" x="2" y="6" width="85.8" height="85.7969" filterUnits="userSpaceOnUse" color-interpolation-filters="sRGB">
<feFlood flood-opacity="0" result="BackgroundImageFix"/>
<feColorMatrix in="SourceAlpha" type="matrix" values="0 0 0 0 0 0 0 0 0 0 0 0 0 0 0 0 0 0 127 0" result="hardAlpha"/>
<feOffset dy="4"/>
<feGaussianBlur stdDeviation="2"/>
<feComposite in2="hardAlpha" operator="out"/>
<feColorMatrix type="matrix" values="0 0 0 0 0 0 0 0 0 0 0 0 0 0 0 0 0 0 0.25 0"/>
<feBlend mode="normal" in2="BackgroundImageFix" result="effect1_dropShadow_16047_38755"/>
<feBlend mode="normal" in="SourceGraphic" in2="effect1_dropShadow_16047_38755" result="shape"/>
</filter>
<filter id="filter1_d_16047_38755" x="21.6375" y="23.5234" width="47.7249" height="45.9453" filterUnits="userSpaceOnUse" color-interpolation-filters="sRGB">
<feFlood flood-opacity="0" result="BackgroundImageFix"/>
<feColorMatrix in="SourceAlpha" type="matrix" values="0 0 0 0 0 0 0 0 0 0 0 0 0 0 0 0 0 0 127 0" result="hardAlpha"/>
<feOffset dy="1"/>
<feGaussianBlur stdDeviation="1"/>
<feComposite in2="hardAlpha" operator="out"/>
<feColorMatrix type="matrix" values="0 0 0 0 0 0 0 0 0 0 0 0 0 0 0 0 0 0 0.25 0"/>
<feBlend mode="normal" in2="BackgroundImageFix" result="effect1_dropShadow_16047_38755"/>
<feBlend mode="normal" in="SourceGraphic" in2="effect1_dropShadow_16047_38755" result="shape"/>
</filter>
<linearGradient id="paint0_linear_16047_38755" x1="72.5518" y1="2.01627" x2="20.9976" y2="83.8" gradientUnits="userSpaceOnUse">
<stop stop-color="white" stop-opacity="0.17"/>
<stop offset="0.486111" stop-color="#252E31" stop-opacity="0.16"/>
<stop offset="1" stop-color="#252E31"/>
</linearGradient>
<clipPath id="clip0_16047_38755">
<rect width="46" height="45" fill="white" transform="translate(22.5 23)"/>
</clipPath>
</defs>
</svg>
