<svg id="Layer_1" data-name="Layer 1" xmlns="http://www.w3.org/2000/svg" viewBox="0 0 386.99 26.74"><defs><style>.cls-1{fill:#fff;}</style></defs><title>meshery-cloud-text-white</title><polygon class="cls-1" points="278.17 0 272.83 0 272.83 26.74 298.18 26.74 298.18 21.4 278.17 21.4 278.17 0"/><path class="cls-1" d="M247.9,22.21h21.29v4.53H247.9"/><path class="cls-1" d="M242.37,22.21A5.71,5.71,0,0,0,248,26.74V22.21Z"/><path class="cls-1" d="M249.54,0a8.51,8.51,0,0,0-2.82.46,7.63,7.63,0,0,0-2.33,1.24,6.19,6.19,0,0,0-1.52,1.76,6.28,6.28,0,0,0-.62,2.59V19.68H248V5.79a1,1,0,0,1,.13-.49,1.27,1.27,0,0,1,.34-.4,1.83,1.83,0,0,1,.5-.27,2,2,0,0,1,.61-.1h19.65V0Z"/><path class="cls-1" d="M305.68,12.09V6.62a1.39,1.39,0,0,1,1.39-1.39H321.5a1.39,1.39,0,0,1,1.39,1.39v5.47h4.77V4.65A4.67,4.67,0,0,0,323,0H305.57a4.67,4.67,0,0,0-4.66,4.65v7.44Z"/><path class="cls-1" d="M322.89,14.65v5.47a1.4,1.4,0,0,1-1.39,1.4H307.07a1.4,1.4,0,0,1-1.39-1.4V14.65h-4.77v7.44a4.67,4.67,0,0,0,4.66,4.65H323a4.67,4.67,0,0,0,4.66-4.65V14.65Z"/><path class="cls-1" d="M353.25,0h-.11V20.12a1.4,1.4,0,0,1-1.39,1.4H337.32a1.4,1.4,0,0,1-1.4-1.4V0h-.1a4.67,4.67,0,0,0-4.66,4.65V22.09a4.67,4.67,0,0,0,4.66,4.65h17.43a4.67,4.67,0,0,0,4.66-4.65V4.65A4.67,4.67,0,0,0,353.25,0Z"/><path class="cls-1" d="M382.34,0H364.9a4.66,4.66,0,0,0-4.65,4.65V26.74h22.09A4.66,4.66,0,0,0,387,22.09V4.65A4.66,4.66,0,0,0,382.34,0Zm-.11,20.12a1.4,1.4,0,0,1-1.4,1.4H365V6.62a1.4,1.4,0,0,1,1.4-1.39h14.42a1.4,1.4,0,0,1,1.4,1.39Z"/><polygon class="cls-1" points="135.09 4.21 135.09 5.35 135.09 10.7 135.09 17.22 135.09 26.75 160.45 26.75 160.45 21.4 140.44 21.4 140.44 17.22 140.44 16.05 155.81 16.05 155.81 10.7 140.44 10.7 140.44 5.35 160.45 5.35 160.45 0 135.09 0 135.09 4.21"/><polygon class="cls-1" points="37.56 4.21 37.56 5.35 37.56 10.7 37.56 17.22 37.56 26.75 62.92 26.75 62.92 21.4 42.91 21.4 42.91 17.22 42.91 16.05 58.28 16.05 58.28 10.7 42.91 10.7 42.91 5.35 62.92 5.35 62.92 0 37.56 0 37.56 4.21"/><path class="cls-1" d="M98,19.76a6.7,6.7,0,0,1-.55,2.71A6.88,6.88,0,0,1,96,24.69a7.36,7.36,0,0,1-2.23,1.5,6.83,6.83,0,0,1-2.73.55H66V21.11H91a1.33,1.33,0,0,0,1.35-1.35V17.58A1.33,1.33,0,0,0,91,16.23H73a6.67,6.67,0,0,1-2.71-.56,7,7,0,0,1-3.76-3.76A6.67,6.67,0,0,1,66,9.2V7a6.76,6.76,0,0,1,.55-2.73A7.15,7.15,0,0,1,68,2.07,7.26,7.26,0,0,1,70.27.55,6.67,6.67,0,0,1,73,0H98V5.67H73A1.33,1.33,0,0,0,71.63,7V9.2A1.33,1.33,0,0,0,73,10.55H91a6.84,6.84,0,0,1,2.73.56,7.12,7.12,0,0,1,3.74,3.74A6.83,6.83,0,0,1,98,17.58Z"/><path class="cls-1" d="M131.75,26.74h-5.1V16.23H106.76V26.74h-5.1V10.55h25V0h5.1ZM106.76,8h-5.1V0h5.1Z"/><polygon class="cls-1" points="204.53 9.36 197.85 0 191.16 0 201.86 16.05 201.86 26.75 207.21 26.75 207.21 16.05 217.91 0 211.3 0 204.53 9.36"/><path class="cls-1" d="M169.55,5.1h13.71v5.56h-11v5.1h2.54l9.7,11h6.6l-9.7-11h3.79a4.15,4.15,0,0,0,4.15-4.15V4.15A4.15,4.15,0,0,0,185.14,0H164.31V26.74h5.35Z"/><path class="cls-1" d="M33.45,26.74H27.78V7.24a1.39,1.39,0,0,0-.13-.61,1.67,1.67,0,0,0-.33-.5,1.92,1.92,0,0,0-.5-.34,1.58,1.58,0,0,0-.61-.12H0V0H26.21A7,7,0,0,1,29,.57a7.67,7.67,0,0,1,2.32,1.55,7.67,7.67,0,0,1,1.55,2.32,7,7,0,0,1,.57,2.8Zm-27.78,0H0V5.67L5.67,4.12Zm13.87,0H13.87V8.64h5.67Z"/></svg>