<svg width="90" height="90" viewBox="0 0 130 132" fill="none" xmlns="http://www.w3.org/2000/svg">
<circle cx="65" cy="65" r="65" fill="#00B39F"/>
<g filter="url(#filter0_d_17728_5067)">
<circle cx="64.8554" cy="64.1342" r="56.1889" fill="#252E31"/>
</g>
<path d="M64.8554 7.94531L70.7287 8.25312L76.5377 9.17318L82.2187 10.6954L87.7095 12.8031L92.9498 15.4732L97.8824 18.6764L102.453 22.3777L106.612 26.5365L110.313 31.1072L113.516 36.0398L116.187 41.2801L118.294 46.7709L119.816 52.4519L120.736 58.2609L121.044 64.1342L120.736 70.0075L119.816 75.8165L118.294 81.4975L116.187 86.9883L113.516 92.2287L110.313 97.1612L106.612 101.732L102.453 105.891L97.8824 109.592L92.9498 112.795L87.7095 115.465L82.2187 117.573L76.5377 119.095L70.7287 120.015L64.8554 120.323L58.9821 120.015L53.1731 119.095L47.4921 117.573L42.0013 115.465L36.761 112.795L31.8284 109.592L27.2577 105.891L23.0989 101.732L19.3976 97.1612L16.1944 92.2287L13.5243 86.9883L11.4166 81.4975L9.89437 75.8165L8.97431 70.0075L8.6665 64.1342L8.97431 58.2609L9.89437 52.4519L11.4166 46.7709L13.5243 41.2801L16.1944 36.0398L19.3976 31.1072L23.0989 26.5365L27.2577 22.3777L31.8284 18.6764L36.761 15.4732L42.0013 12.8031L47.4921 10.6954L53.1731 9.17318L58.9821 8.25312L64.8554 7.94531Z" fill="url(#paint0_linear_17728_5067)"/>
<path d="M77.9272 64.1622C77.6922 64.1559 77.4584 64.1978 77.2403 64.2855C77.0221 64.3732 76.8243 64.5047 76.659 64.6718C73.53 67.7179 69.2987 69.4068 64.9015 69.4068C60.5043 69.4068 56.3619 67.712 53.1499 64.6659C52.8121 64.3281 52.3025 64.1562 51.8817 64.1562C42.6606 64.8378 35.3892 72.6188 35.3892 81.9229V90.1247C35.3867 91.569 35.6693 92.9997 36.2209 94.3345C36.7725 95.6694 37.5821 96.8823 38.6034 97.9035C39.6247 98.9248 40.8375 99.7345 42.1724 100.286C43.5073 100.838 44.9379 101.12 46.3822 101.118H83.3378C84.7821 101.12 86.2128 100.838 87.5476 100.286C88.8825 99.7345 90.0953 98.9248 91.1166 97.9035C92.1379 96.8823 92.9476 95.6694 93.4991 94.3345C94.0507 92.9997 94.3334 91.569 94.3309 90.1247V81.9229C94.4198 72.6188 87.1483 64.8378 77.9272 64.1622Z" fill="#647881"/>
<path d="M64.9075 63.3092C73.1093 63.3092 79.877 56.6304 79.877 48.3397C79.877 40.1378 73.1093 33.4531 64.9075 33.4531C56.7057 33.4531 49.938 40.1378 49.938 48.4226C49.938 56.6304 56.6997 63.3092 64.9075 63.3092ZM64.9075 36.837C71.2485 36.837 76.4932 41.9927 76.4932 48.4226C76.4932 54.7636 71.3374 60.0083 64.9075 60.0083C58.5665 60.0083 53.3218 54.8525 53.3218 48.4226C53.3218 41.9927 58.5606 36.837 64.9075 36.837Z" fill="#647881"/>
<path d="M86.4195 55.2695H83.3083C83.1197 55.2695 82.9388 55.1946 82.8055 55.0612C82.6721 54.9279 82.5972 54.747 82.5972 54.5584V45.758C82.5972 45.5694 82.6721 45.3885 82.8055 45.2552C82.9388 45.1218 83.1197 45.0469 83.3083 45.0469H86.4195C86.6082 45.0469 86.789 45.1218 86.9224 45.2552C87.0558 45.3885 87.1307 45.5694 87.1307 45.758V54.5584C87.1307 54.747 87.0558 54.9279 86.9224 55.0612C86.789 55.1946 86.6082 55.2695 86.4195 55.2695Z" fill="#647881"/>
<path d="M46.4889 55.3633H43.3776C43.189 55.3633 43.0082 55.2883 42.8748 55.155C42.7414 55.0216 42.6665 54.8407 42.6665 54.6521V45.8518C42.6665 45.6632 42.7414 45.4823 42.8748 45.3489C43.0082 45.2155 43.189 45.1406 43.3776 45.1406H46.4889C46.6775 45.1406 46.8584 45.2155 46.9917 45.3489C47.1251 45.4823 47.2 45.6632 47.2 45.8518V54.6521C47.2 54.8407 47.1251 55.0216 46.9917 55.155C46.8584 55.2883 46.6775 55.3633 46.4889 55.3633Z" fill="#647881"/>
<path d="M84.9439 43.4394H83.4149C81.9097 35.1961 74.2234 28.8906 64.9075 28.8906C55.5916 28.8906 47.8342 35.1961 46.3764 43.4394H44.8593C42.6547 43.4394 40.8887 45.1343 40.8828 47.0721V53.2472C40.8828 55.2799 42.6607 56.9688 44.8593 56.9688H47.4786C48.2372 56.9688 48.8298 56.3762 48.8298 55.7006V46.5091C48.8347 46.4718 48.8367 46.4342 48.8357 46.3965C48.8357 38.1947 56.0301 31.51 64.9075 31.51C73.7849 31.51 80.9733 38.1947 80.9733 46.3965V53.9702C76.7954 56.6725 71.4144 57.4429 64.9905 56.4532C64.226 56.3703 63.5504 56.8799 63.4674 57.5555C63.2956 58.237 63.8052 58.8237 64.4808 58.9956C71.1774 60.0741 76.8191 59.2622 81.4771 56.6844C81.7205 56.8699 82.0184 56.9699 82.3245 56.9688H84.9498C87.1484 56.9688 88.9203 55.2739 88.9203 53.3361V47.161C88.9203 45.1283 87.1425 43.4394 84.9439 43.4394ZM46.1215 54.4383H44.9363C44.2607 54.4383 43.7511 53.9287 43.7511 53.3361V47.1669C43.7511 46.5743 44.2607 46.0647 44.9363 46.0647H46.1215V54.4383ZM86.0521 53.2413C86.0521 53.8339 85.5424 54.3435 84.8668 54.3435H83.6816V45.9698H84.8668C85.5424 45.9698 86.0521 46.4795 86.0521 47.0721V53.2413Z" fill="#3C494E"/>
<path d="M57.239 81.2474C57.8629 80.1 58.7381 79.1085 59.7992 78.3471C60.8603 77.5856 62.0799 77.0739 63.3666 76.8502L62.8451 73.8516C59.2598 74.4679 56.2315 76.7198 54.5366 79.7837L57.239 81.2474Z" fill="#00D3A9"/>
<path d="M57.3694 89.9442C56.5542 88.5859 56.1259 87.0305 56.1308 85.4463C56.1295 84.4118 56.3162 83.3857 56.6819 82.418L53.8196 81.375C53.3474 82.6826 53.1048 84.062 53.1025 85.4522C53.1042 87.5858 53.6793 89.6796 54.7678 91.5147L57.3694 89.9442Z" fill="#00B39F"/>
<path d="M64.9547 94.1864H64.854C62.1457 94.1864 59.7397 92.9478 58.1041 90.9922L55.7573 92.9478C57.9085 95.5553 61.2035 97.2502 64.8481 97.2502H64.9784L64.9547 94.1864Z" fill="#00D3A9"/>
<path d="M72.4511 89.75C71.8058 90.8842 70.9146 91.8594 69.8429 92.6039C68.7712 93.3484 67.5464 93.8434 66.2583 94.0524L66.7442 97.0807C68.483 96.7956 70.1355 96.1236 71.5797 95.1143C73.0239 94.105 74.2229 92.7841 75.0883 91.2493L72.4511 89.75Z" fill="#00B39F"/>
<path d="M72.3862 81.0462C73.1617 82.3814 73.5667 83.8994 73.5596 85.4434C73.5666 86.5144 73.3674 87.5767 72.9729 88.5724L75.8412 89.6806C76.3491 88.3376 76.614 86.9148 76.6234 85.479C76.6257 83.3947 76.0734 81.3473 75.0234 79.5469L72.3862 81.0462Z" fill="#00D3A9"/>
<path d="M70.1343 79.4209L69.4824 78.7631L71.0351 77.2105L69.4824 75.6578L70.1343 75L72.3448 77.2105L70.1343 79.4209Z" fill="#20BDAB"/>
<path d="M65.7135 79.4209L65.0557 78.7631L66.6142 77.2105L65.0557 75.6578L65.7135 75L67.9239 77.2105L65.7135 79.4209Z" fill="#20BDAB"/>
<defs>
<filter id="filter0_d_17728_5067" x="2.88873" y="7.94531" width="123.933" height="123.931" filterUnits="userSpaceOnUse" color-interpolation-filters="sRGB">
<feFlood flood-opacity="0" result="BackgroundImageFix"/>
<feColorMatrix in="SourceAlpha" type="matrix" values="0 0 0 0 0 0 0 0 0 0 0 0 0 0 0 0 0 0 127 0" result="hardAlpha"/>
<feOffset dy="5.77778"/>
<feGaussianBlur stdDeviation="2.88889"/>
<feComposite in2="hardAlpha" operator="out"/>
<feColorMatrix type="matrix" values="0 0 0 0 0 0 0 0 0 0 0 0 0 0 0 0 0 0 0.25 0"/>
<feBlend mode="normal" in2="BackgroundImageFix" result="effect1_dropShadow_17728_5067"/>
<feBlend mode="normal" in="SourceGraphic" in2="effect1_dropShadow_17728_5067" result="shape"/>
</filter>
<linearGradient id="paint0_linear_17728_5067" x1="104.797" y1="2.19103" x2="30.3297" y2="120.323" gradientUnits="userSpaceOnUse">
<stop stop-color="white" stop-opacity="0.17"/>
<stop offset="0.486111" stop-color="#252E31" stop-opacity="0.16"/>
<stop offset="1" stop-color="#252E31"/>
</linearGradient>
</defs>
</svg>
