<?xml version="1.0" encoding="UTF-8"?>
<svg id="Layer_1" data-name="Layer 1" xmlns="http://www.w3.org/2000/svg" viewBox="0 0 20 20">
  <path d="M14.11,6.36h-5.87c-.4,0-.73.33-.73.73v4.4c0,.4.33.73.73.73h5.14l1.47,1.47v-6.6c0-.4-.33-.73-.73-.73ZM13.38,10.76h-4.4v-.73h4.4v.73ZM13.38,9.66h-4.4v-.73h4.4v.73ZM13.38,8.56h-4.4v-.73h4.4v.73Z"/>
  <path d="M11.16,1.18c4.88,0,8.83,3.97,8.83,8.82s-3.95,8.82-8.83,8.82c-3.1,0-5.81-1.61-7.39-4.03l1.39-1.1c1.24,2.02,3.46,3.37,6,3.37,3.9,0,7.06-3.16,7.06-7.06s-3.16-7.06-7.06-7.06c-3.6,0-6.57,2.7-7,6.18h2.44l-3.3,3.29L.01,9.12h2.37C2.83,4.66,6.59,1.18,11.16,1.18"/>
</svg>