<svg width="620" height="301" viewBox="0 0 620 301" fill="none" xmlns="http://www.w3.org/2000/svg">
<rect x="320" y="280.531" width="20" height="20" fill="#A0A0FF"/>
<rect x="340" y="280.531" width="20" height="20" fill="#A0A0FF"/>
<rect x="340" y="260.531" width="20" height="20" fill="#5A5AB5"/>
<rect x="359.999" y="240.531" width="20" height="20" fill="#A0A0FF"/>
<rect x="359.999" y="220.531" width="20" height="20" fill="#5A5AB5"/>
<rect width="20" height="20" transform="matrix(1 0 0 -1 320 20.5312)" fill="#A0A0FF"/>
<rect width="20" height="20" transform="matrix(1 0 0 -1 340 20.5312)" fill="#A0A0FF"/>
<rect width="20" height="20" transform="matrix(1 0 0 -1 340 40.5312)" fill="#5A5AB5"/>
<rect width="20" height="20" transform="matrix(1 0 0 -1 359.999 60.5312)" fill="#A0A0FF"/>
<rect width="20" height="20" transform="matrix(1 0 0 -1 359.999 80.5312)" fill="#5A5AB5"/>
<rect width="20" height="20" transform="matrix(-1 0 0 1 300.001 280.531)" fill="#A0A0FF"/>
<rect width="20" height="20" transform="matrix(-1 0 0 1 280.002 280.531)" fill="#A0A0FF"/>
<rect width="20" height="20" transform="matrix(-1 0 0 1 280.002 260.531)" fill="#5A5AB5"/>
<rect width="20" height="20" transform="matrix(-1 0 0 1 260.003 240.531)" fill="#A0A0FF"/>
<rect width="20" height="20" transform="matrix(-1 0 0 1 260.003 220.531)" fill="#5A5AB5"/>
<rect x="300.001" y="20.5312" width="20" height="20" transform="rotate(180 300.001 20.5312)" fill="#A0A0FF"/>
<rect x="280.002" y="20.5312" width="20" height="20" transform="rotate(180 280.002 20.5312)" fill="#A0A0FF"/>
<rect x="280.002" y="40.5312" width="20" height="20" transform="rotate(180 280.002 40.5312)" fill="#5A5AB5"/>
<rect x="260.003" y="60.5312" width="20" height="20" transform="rotate(180 260.003 60.5312)" fill="#A0A0FF"/>
<rect x="260.003" y="80.5312" width="20" height="20" transform="rotate(180 260.003 80.5312)" fill="#5A5AB5"/>
<rect x="359.999" y="0.53125" width="20" height="20" fill="#5A5AB5"/>
<rect x="380.002" y="20.5312" width="20" height="20" fill="#A0A0FF"/>
<rect x="400.002" y="20.5312" width="20" height="20" fill="#5A5AB5"/>
<rect x="420.001" y="40.5312" width="20" height="20" fill="#5A5AB5"/>
<rect x="440" y="60.5312" width="20" height="20" fill="#5A5AB5"/>
<rect x="459.999" y="80.5312" width="20" height="20" fill="#5A5AB5"/>
<rect x="459.999" y="100.531" width="20" height="20" fill="#5A5AB5"/>
<rect x="480.003" y="120.539" width="20" height="20" fill="#5A5AB5"/>
<rect width="20" height="20" transform="matrix(1 0 0 -1 359.999 300.531)" fill="#5A5AB5"/>
<rect width="20" height="20" transform="matrix(1 0 0 -1 380.002 280.531)" fill="#A0A0FF"/>
<rect width="20" height="20" transform="matrix(1 0 0 -1 400.002 280.531)" fill="#5A5AB5"/>
<rect width="20" height="20" transform="matrix(1 0 0 -1 420.001 260.531)" fill="#5A5AB5"/>
<rect width="20" height="20" transform="matrix(1 0 0 -1 440 240.531)" fill="#5A5AB5"/>
<rect width="20" height="20" transform="matrix(1 0 0 -1 459.999 220.531)" fill="#5A5AB5"/>
<rect width="20" height="20" transform="matrix(1 0 0 -1 459.999 200.531)" fill="#5A5AB5"/>
<rect width="20" height="20" transform="matrix(1 0 0 -1 480.003 180.531)" fill="#5A5AB5"/>
<rect width="20" height="20" transform="matrix(-1 0 0 1 260.003 0.53125)" fill="#5A5AB5"/>
<rect width="20" height="20" transform="matrix(-1 0 0 1 239.999 20.5312)" fill="#A0A0FF"/>
<rect width="20" height="20" transform="matrix(-1 0 0 1 220 20.5312)" fill="#5A5AB5"/>
<rect width="20" height="20" transform="matrix(-1 0 0 1 200.001 40.5312)" fill="#5A5AB5"/>
<rect width="20" height="20" transform="matrix(-1 0 0 1 180.002 60.5312)" fill="#5A5AB5"/>
<rect width="20" height="20" transform="matrix(-1 0 0 1 160.003 80.5312)" fill="#5A5AB5"/>
<rect width="20" height="20" transform="matrix(-1 0 0 1 160.003 100.531)" fill="#5A5AB5"/>
<rect width="20" height="20" transform="matrix(-1 0 0 1 139.999 120.539)" fill="#5A5AB5"/>
<rect x="260.003" y="300.531" width="20" height="20" transform="rotate(180 260.003 300.531)" fill="#5A5AB5"/>
<rect x="239.999" y="280.531" width="20" height="20" transform="rotate(180 239.999 280.531)" fill="#A0A0FF"/>
<rect x="220" y="280.531" width="20" height="20" transform="rotate(180 220 280.531)" fill="#5A5AB5"/>
<rect x="200.001" y="260.531" width="20" height="20" transform="rotate(180 200.001 260.531)" fill="#5A5AB5"/>
<rect x="180.002" y="240.531" width="20" height="20" transform="rotate(180 180.002 240.531)" fill="#5A5AB5"/>
<rect x="160.003" y="220.531" width="20" height="20" transform="rotate(180 160.003 220.531)" fill="#5A5AB5"/>
<rect x="160.003" y="200.531" width="20" height="20" transform="rotate(180 160.003 200.531)" fill="#5A5AB5"/>
<rect x="139.999" y="180.531" width="20" height="20" transform="rotate(180 139.999 180.531)" fill="#5A5AB5"/>
<rect x="400.002" y="0.53125" width="20" height="20" fill="#A0A0FF"/>
<rect x="420.001" y="20.5312" width="20" height="20" fill="#A0A0FF"/>
<rect x="420.001" y="0.53125" width="20" height="20" fill="#5A5AB5"/>
<rect x="440" y="20.5312" width="20" height="20" fill="#5A5AB5"/>
<rect x="459.999" y="40.5312" width="20" height="20" fill="#5A5AB5"/>
<rect x="459.999" y="20.5312" width="20" height="20" fill="#A0A0FF"/>
<rect x="480.003" y="40.5312" width="20" height="20" fill="#A0A0FF"/>
<rect x="500.002" y="60.5312" width="20" height="20" fill="#5A5AB5"/>
<rect x="520.001" y="80.5312" width="20" height="20" fill="#5A5AB5"/>
<rect x="540" y="100.531" width="20" height="20" fill="#5A5AB5"/>
<rect x="540" y="120.539" width="20" height="20" fill="#A0A0FF"/>
<rect x="380.002" y="0.53125" width="20" height="20" fill="#A0A0FF"/>
<rect width="20" height="20" transform="matrix(1 0 0 -1 400.002 300.531)" fill="#A0A0FF"/>
<rect width="20" height="20" transform="matrix(1 0 0 -1 380.002 300.531)" fill="#A0A0FF"/>
<rect width="20" height="20" transform="matrix(1 0 0 -1 420.001 280.531)" fill="#A0A0FF"/>
<rect width="20" height="20" transform="matrix(1 0 0 -1 420.001 300.531)" fill="#5A5AB5"/>
<rect width="20" height="20" transform="matrix(1 0 0 -1 440 280.531)" fill="#5A5AB5"/>
<rect width="20" height="20" transform="matrix(1 0 0 -1 459.999 260.531)" fill="#5A5AB5"/>
<rect width="20" height="20" transform="matrix(1 0 0 -1 459.999 280.531)" fill="#A0A0FF"/>
<rect width="20" height="20" transform="matrix(1 0 0 -1 480.003 260.531)" fill="#A0A0FF"/>
<rect width="20" height="20" transform="matrix(1 0 0 -1 500.002 240.531)" fill="#5A5AB5"/>
<rect width="20" height="20" transform="matrix(1 0 0 -1 520.001 220.531)" fill="#5A5AB5"/>
<rect width="20" height="20" transform="matrix(1 0 0 -1 540 200.531)" fill="#5A5AB5"/>
<rect width="20" height="20" transform="matrix(1 0 0 -1 540 180.531)" fill="#A0A0FF"/>
<rect width="20" height="20" transform="matrix(-1 0 0 1 220 0.53125)" fill="#A0A0FF"/>
<rect width="20" height="20" transform="matrix(-1 0 0 1 200.001 20.5312)" fill="#A0A0FF"/>
<rect width="20" height="20" transform="matrix(-1 0 0 1 200.001 0.53125)" fill="#5A5AB5"/>
<rect width="20" height="20" transform="matrix(-1 0 0 1 180.002 20.5312)" fill="#5A5AB5"/>
<rect width="20" height="20" transform="matrix(-1 0 0 1 160.003 40.5312)" fill="#5A5AB5"/>
<rect width="20" height="20" transform="matrix(-1 0 0 1 160.003 20.5312)" fill="#A0A0FF"/>
<rect width="20" height="20" transform="matrix(-1 0 0 1 139.999 40.5312)" fill="#A0A0FF"/>
<rect width="20" height="20" transform="matrix(-1 0 0 1 120 60.5312)" fill="#5A5AB5"/>
<rect width="20" height="20" transform="matrix(-1 0 0 1 100.001 80.5312)" fill="#5A5AB5"/>
<rect width="20" height="20" transform="matrix(-1 0 0 1 80.002 100.531)" fill="#5A5AB5"/>
<rect width="20" height="20" transform="matrix(-1 0 0 1 80.002 120.539)" fill="#A0A0FF"/>
<rect width="20" height="20" transform="matrix(-1 0 0 1 239.999 0.53125)" fill="#A0A0FF"/>
<rect x="220" y="300.531" width="20" height="20" transform="rotate(180 220 300.531)" fill="#A0A0FF"/>
<rect x="239.999" y="300.531" width="20" height="20" transform="rotate(180 239.999 300.531)" fill="#A0A0FF"/>
<rect x="200.001" y="280.531" width="20" height="20" transform="rotate(180 200.001 280.531)" fill="#A0A0FF"/>
<rect x="200.001" y="300.531" width="20" height="20" transform="rotate(180 200.001 300.531)" fill="#5A5AB5"/>
<rect x="180.002" y="280.531" width="20" height="20" transform="rotate(180 180.002 280.531)" fill="#5A5AB5"/>
<rect x="160.003" y="260.531" width="20" height="20" transform="rotate(180 160.003 260.531)" fill="#5A5AB5"/>
<rect x="160.003" y="280.531" width="20" height="20" transform="rotate(180 160.003 280.531)" fill="#A0A0FF"/>
<rect x="139.999" y="260.531" width="20" height="20" transform="rotate(180 139.999 260.531)" fill="#A0A0FF"/>
<rect x="120" y="240.531" width="20" height="20" transform="rotate(180 120 240.531)" fill="#5A5AB5"/>
<rect x="100.001" y="220.531" width="20" height="20" transform="rotate(180 100.001 220.531)" fill="#5A5AB5"/>
<rect x="80.002" y="200.531" width="20" height="20" transform="rotate(180 80.002 200.531)" fill="#5A5AB5"/>
<rect x="80.002" y="180.531" width="20" height="20" transform="rotate(180 80.002 180.531)" fill="#A0A0FF"/>
<rect x="480.003" y="20.5312" width="20" height="20" fill="#5A5AB5"/>
<rect x="500.002" y="20.5312" width="20" height="20" fill="#5A5AB5"/>
<rect x="500.002" y="40.5312" width="20" height="20" fill="#A0A0FF"/>
<rect x="520.001" y="40.5312" width="20" height="20" fill="#5A5AB5"/>
<rect x="540" y="40.5312" width="20" height="20" fill="#5A5AB5"/>
<rect x="540" y="60.5312" width="20" height="20" fill="#A0A0FF"/>
<rect x="559.999" y="60.5312" width="20" height="20" fill="#5A5AB5"/>
<rect x="559.999" y="80.5312" width="20" height="20" fill="#A0A0FF"/>
<rect x="580.003" y="80.5312" width="20" height="20" fill="#5A5AB5"/>
<rect x="600.002" y="100.531" width="20" height="20" fill="#5A5AB5"/>
<rect x="600.002" y="120.539" width="20" height="20" fill="#5A5AB5"/>
<rect width="20" height="20" transform="matrix(1 0 0 -1 480.003 280.531)" fill="#5A5AB5"/>
<rect width="20" height="20" transform="matrix(1 0 0 -1 500.002 280.531)" fill="#5A5AB5"/>
<rect width="20" height="20" transform="matrix(1 0 0 -1 500.002 260.531)" fill="#A0A0FF"/>
<rect width="20" height="20" transform="matrix(1 0 0 -1 520.001 260.531)" fill="#5A5AB5"/>
<rect width="20" height="20" transform="matrix(1 0 0 -1 540 260.531)" fill="#5A5AB5"/>
<rect width="20" height="20" transform="matrix(1 0 0 -1 540 240.531)" fill="#A0A0FF"/>
<rect width="20" height="20" transform="matrix(1 0 0 -1 559.999 240.531)" fill="#5A5AB5"/>
<rect width="20" height="20" transform="matrix(1 0 0 -1 559.999 220.531)" fill="#A0A0FF"/>
<rect width="20" height="20" transform="matrix(1 0 0 -1 580.003 220.531)" fill="#5A5AB5"/>
<rect width="20" height="20" transform="matrix(1 0 0 -1 600.002 200.531)" fill="#5A5AB5"/>
<rect width="20" height="20" transform="matrix(1 0 0 -1 600.002 180.531)" fill="#5A5AB5"/>
<rect width="20" height="20" transform="matrix(-1 0 0 1 139.999 20.5312)" fill="#5A5AB5"/>
<rect width="20" height="20" transform="matrix(-1 0 0 1 120 20.5312)" fill="#5A5AB5"/>
<rect width="20" height="20" transform="matrix(-1 0 0 1 120 40.5312)" fill="#A0A0FF"/>
<rect width="20" height="20" transform="matrix(-1 0 0 1 100.001 40.5312)" fill="#5A5AB5"/>
<rect width="20" height="20" transform="matrix(-1 0 0 1 80.002 40.5312)" fill="#5A5AB5"/>
<rect width="20" height="20" transform="matrix(-1 0 0 1 80.002 60.5312)" fill="#A0A0FF"/>
<rect width="20" height="20" transform="matrix(-1 0 0 1 60.0029 60.5312)" fill="#5A5AB5"/>
<rect width="20" height="20" transform="matrix(-1 0 0 1 60.0029 80.5312)" fill="#A0A0FF"/>
<rect width="20" height="20" transform="matrix(-1 0 0 1 39.999 80.5312)" fill="#5A5AB5"/>
<rect width="20" height="20" transform="matrix(-1 0 0 1 20 100.531)" fill="#5A5AB5"/>
<rect width="20" height="20" transform="matrix(-1 0 0 1 20 120.539)" fill="#5A5AB5"/>
<rect x="139.999" y="280.531" width="20" height="20" transform="rotate(180 139.999 280.531)" fill="#5A5AB5"/>
<rect x="120" y="280.531" width="20" height="20" transform="rotate(180 120 280.531)" fill="#5A5AB5"/>
<rect x="120" y="260.531" width="20" height="20" transform="rotate(180 120 260.531)" fill="#A0A0FF"/>
<rect x="100.001" y="260.531" width="20" height="20" transform="rotate(180 100.001 260.531)" fill="#5A5AB5"/>
<rect x="80.002" y="260.531" width="20" height="20" transform="rotate(180 80.002 260.531)" fill="#5A5AB5"/>
<rect x="80.002" y="240.531" width="20" height="20" transform="rotate(180 80.002 240.531)" fill="#A0A0FF"/>
<rect x="60.0029" y="240.531" width="20" height="20" transform="rotate(180 60.0029 240.531)" fill="#5A5AB5"/>
<rect x="60.0029" y="220.531" width="20" height="20" transform="rotate(180 60.0029 220.531)" fill="#A0A0FF"/>
<rect x="39.999" y="220.531" width="20" height="20" transform="rotate(180 39.999 220.531)" fill="#5A5AB5"/>
<rect x="20" y="200.531" width="20" height="20" transform="rotate(180 20 200.531)" fill="#5A5AB5"/>
<rect x="20" y="180.531" width="20" height="20" transform="rotate(180 20 180.531)" fill="#5A5AB5"/>
<rect x="300.001" y="260.531" width="20" height="20" fill="#A0A0FF"/>
<rect x="300.001" y="220.531" width="20" height="20" fill="#A0A0FF"/>
<rect x="300.001" y="40.5312" width="20" height="20" fill="#5A5AB5"/>
<rect x="300.001" y="0.53125" width="20" height="20" fill="#5A5AB5"/>
<rect x="300.001" y="280.531" width="20" height="20" fill="#5A5AB5"/>
<rect x="300.001" y="240.531" width="20" height="20" fill="#5A5AB5"/>
<rect x="300.001" y="60.5312" width="20" height="20" fill="#A0A0FF"/>
<rect x="300.001" y="20.5312" width="20" height="20" fill="#A0A0FF"/>
<rect x="120" y="140.531" width="20" height="20" transform="rotate(90 120 140.531)" fill="#5A5AB5"/>
<rect x="80.002" y="140.531" width="20" height="20" transform="rotate(90 80.002 140.531)" fill="#5A5AB5"/>
<rect x="500.002" y="140.531" width="20" height="20" transform="rotate(90 500.002 140.531)" fill="#A0A0FF"/>
<rect x="160.003" y="140.531" width="20" height="20" transform="rotate(90 160.003 140.531)" fill="#5A5AB5"/>
<rect x="540" y="140.531" width="20" height="20" transform="rotate(90 540 140.531)" fill="#A0A0FF"/>
<rect x="459.999" y="140.531" width="20" height="20" transform="rotate(90 459.999 140.531)" fill="#A0A0FF"/>
<rect x="580.003" y="140.531" width="20" height="20" transform="rotate(90 580.003 140.531)" fill="#A0A0FF"/>
<rect x="600.002" y="140.531" width="20" height="20" transform="rotate(90 600.002 140.531)" fill="#5A5AB5"/>
<rect x="620.001" y="140.531" width="20" height="20" transform="rotate(90 620.001 140.531)" fill="#5A5AB5"/>
<rect x="200.001" y="140.531" width="20" height="20" transform="rotate(90 200.001 140.531)" fill="#5A5AB5"/>
<rect x="100.001" y="140.531" width="20" height="20" transform="rotate(90 100.001 140.531)" fill="#A0A0FF"/>
<rect x="60.0029" y="140.531" width="20" height="20" transform="rotate(90 60.0029 140.531)" fill="#A0A0FF"/>
<rect x="39.999" y="140.531" width="20" height="20" transform="rotate(90 39.999 140.531)" fill="#5A5AB5"/>
<rect x="20" y="140.531" width="20" height="20" transform="rotate(90 20 140.531)" fill="#5A5AB5"/>
<rect x="180.002" y="140.531" width="20" height="20" transform="rotate(90 180.002 140.531)" fill="#A0A0FF"/>
<rect x="480.003" y="140.531" width="20" height="20" transform="rotate(90 480.003 140.531)" fill="#5A5AB5"/>
<rect x="139.999" y="140.531" width="20" height="20" transform="rotate(90 139.999 140.531)" fill="#A0A0FF"/>
<rect x="520.001" y="140.531" width="20" height="20" transform="rotate(90 520.001 140.531)" fill="#5A5AB5"/>
<rect x="440" y="140.531" width="20" height="20" transform="rotate(90 440 140.531)" fill="#5A5AB5"/>
<rect x="559.999" y="140.531" width="20" height="20" transform="rotate(90 559.999 140.531)" fill="#5A5AB5"/>
<rect x="200.001" y="240.531" width="20" height="20" fill="#A0A0FF"/>
<rect x="400.002" y="240.531" width="20" height="20" fill="#A0A0FF"/>
<rect width="20" height="20" transform="matrix(1 0 0 -1 200.001 60.5312)" fill="#A0A0FF"/>
<rect width="20" height="20" transform="matrix(1 0 0 -1 400.002 60.5312)" fill="#A0A0FF"/>
<path d="M325.071 189.321V111.742H394.892V126.15L387.135 133.908H349.453V143.882H381.593V166.048H349.453V189.321H325.071Z" fill="#5A5AB5"/>
<path d="M233.101 189.321V111.742H257.483V139.449H290.731V111.742H315.113V189.321H290.731V161.614H257.483V189.321H233.101Z" fill="#5A5AB5"/>
</svg>
