<svg width="30" height="50" viewBox="0 0 141 248" fill="none" xmlns="http://www.w3.org/2000/svg">
<path d="M69.3886 245.278C107.711 245.278 138.777 214.211 138.777 175.889C138.777 137.567 107.711 106.501 69.3886 106.501C31.0663 106.501 0 137.567 0 175.889C0 214.211 31.0663 245.278 69.3886 245.278Z" fill="#FF9838"/>
<path d="M69.388 117.823C57.9037 117.823 46.6773 121.229 37.1284 127.609C27.5796 133.99 20.1371 143.058 15.7423 153.668C11.3474 164.279 10.1975 175.954 12.438 187.217C14.6785 198.481 20.2087 208.827 28.3294 216.948C36.45 225.069 46.7963 230.599 58.06 232.839C69.3236 235.08 80.9987 233.93 91.6088 229.535C102.219 225.14 111.288 217.698 117.668 208.149C124.048 198.6 127.454 187.374 127.454 175.889C127.454 160.489 121.336 145.72 110.447 134.831C99.5573 123.941 84.788 117.823 69.388 117.823ZM67.3858 210.358C55.7726 210.358 45.541 203.911 44.3597 191.407C44.2988 191.069 44.3182 190.723 44.4163 190.394C44.5144 190.066 44.6885 189.765 44.9244 189.517C45.1603 189.268 45.4515 189.078 45.7743 188.963C46.0971 188.848 46.4425 188.811 46.7824 188.854H58.0652C59.5369 188.854 60.1276 189.615 60.6582 191.046C61.4691 193.259 63.6616 194.7 67.3958 194.7C72.2913 194.7 74.4838 192.218 74.4838 188.764C74.4838 185.31 72.2913 182.917 67.3958 182.917H60.7683C60.4364 182.952 60.1009 182.912 59.7864 182.8C59.4719 182.689 59.1862 182.508 58.9503 182.272C58.7143 182.036 58.534 181.751 58.4224 181.436C58.3109 181.122 58.2709 180.786 58.3055 180.454V174.648C58.3084 173.545 58.7061 172.479 59.4268 171.644L67.6361 161.353H48.8848C48.5525 161.389 48.2162 161.351 47.9009 161.24C47.5855 161.129 47.299 160.949 47.0626 160.712C46.8262 160.476 46.6459 160.189 46.5351 159.874C46.4242 159.559 46.3856 159.222 46.422 158.89V148.398C46.3875 148.066 46.4274 147.731 46.539 147.416C46.6505 147.102 46.8308 146.816 47.0668 146.58C47.3028 146.344 47.5884 146.164 47.9029 146.052C48.2175 145.941 48.5529 145.901 48.8848 145.935H84.9256C85.2572 145.9 85.5923 145.94 85.9064 146.052C86.2206 146.163 86.5057 146.344 86.7409 146.58C86.9762 146.816 87.1555 147.102 87.2659 147.417C87.3762 147.731 87.4146 148.067 87.3784 148.398V156.958C87.386 158.054 87.0067 159.117 86.3072 159.961L77.0868 171.584C84.9357 174.067 90.6121 180.124 90.6121 189.184C90.562 203.4 79.7498 210.358 67.3858 210.358Z" fill="#CE7430"/>
<path d="M128.562 73.9519V1.52588e-05H11.5977V73.9519L46.6828 104.695C49.7001 103.55 52.8431 102.768 56.0456 102.364L19.3932 70.4496V7.78177H120.766V70.4496L83.7194 102.364C86.8437 103.141 89.9579 103.525 93.0822 104.695L128.562 73.9519Z" fill="url(#paint0_linear_20728_7134)"/>
<path d="M27.1895 15.5635V66.9473L66.6224 101.193H73.2451L113.022 66.9473V15.5635H27.1895Z" fill="url(#paint1_linear_20728_7134)"/>
<path d="M127.237 172.027C101.306 263.305 19.1057 228.709 11.4955 172.027C10.3855 215.787 46.773 235.438 71.4274 233.941C115.267 231.28 129.853 191.45 127.237 172.027Z" fill="#BC672E"/>
<path d="M138.178 185.029C104.306 272.838 15.1092 243.127 0.595703 185.029C6.58099 226.965 43.2062 246.214 71.4545 245.219C111.541 243.807 135.086 211.269 138.178 185.029Z" fill="#FF8709"/>
<g opacity="0.8" filter="url(#filter0_d_20728_7134)">
<path d="M89.2941 31.1373H73.6758V38.661H89.2941V31.1373Z" fill="white"/>
<path d="M90.7162 56.4827V53.3658C90.7162 49.7753 87.6966 46.8656 83.9749 46.8656H58.7691V44.8144H49.541V53.6957H81.4882V56.4827H90.7162Z" fill="white"/>
<path opacity="0.6" d="M58.7691 42.3573V38.661H71.1267V31.1373H49.541V42.3573H58.7691Z" fill="white"/>
<path opacity="0.6" d="M81.4885 58.9018V63.2917H69.1309V70.8154H84.3559C86.009 70.8414 87.605 70.211 88.7941 69.0623C89.9833 67.9136 90.6685 66.3403 90.6996 64.6873V58.9018H81.4885Z" fill="white"/>
<path d="M58.0284 59.3078V63.2917H66.5798V70.8154H55.584C53.9309 70.8414 52.3348 70.211 51.1457 69.0623C49.9566 67.9136 49.2714 66.3403 49.2402 64.6873V59.3078H58.0284Z" fill="white"/>
</g>
<defs>
<filter id="filter0_d_20728_7134" x="45.2402" y="29.1373" width="49.4766" height="47.6788" filterUnits="userSpaceOnUse" color-interpolation-filters="sRGB">
<feFlood flood-opacity="0" result="BackgroundImageFix"/>
<feColorMatrix in="SourceAlpha" type="matrix" values="0 0 0 0 0 0 0 0 0 0 0 0 0 0 0 0 0 0 127 0" result="hardAlpha"/>
<feOffset dy="2"/>
<feGaussianBlur stdDeviation="2"/>
<feComposite in2="hardAlpha" operator="out"/>
<feColorMatrix type="matrix" values="0 0 0 0 0 0 0 0 0 0 0 0 0 0 0 0 0 0 0.25 0"/>
<feBlend mode="normal" in2="BackgroundImageFix" result="effect1_dropShadow_20728_7134"/>
<feBlend mode="normal" in="SourceGraphic" in2="effect1_dropShadow_20728_7134" result="shape"/>
</filter>
<linearGradient id="paint0_linear_20728_7134" x1="70.0797" y1="1.52588e-05" x2="70.0797" y2="104.695" gradientUnits="userSpaceOnUse">
<stop stop-color="#00D3A9"/>
<stop offset="1" stop-color="#008C7C"/>
</linearGradient>
<linearGradient id="paint1_linear_20728_7134" x1="70.1056" y1="15.5635" x2="70.1056" y2="101.193" gradientUnits="userSpaceOnUse">
<stop stop-color="#00D3A9"/>
<stop offset="1" stop-color="#008C7C"/>
</linearGradient>
</defs>
</svg>
