<svg width="141" height="248" viewBox="0 0 141 248" fill="none" xmlns="http://www.w3.org/2000/svg">
<g clip-path="url(#clip0_20728_7086)">
<path d="M70.17 247.27C108.924 247.27 140.34 215.854 140.34 177.1C140.34 138.346 108.924 106.93 70.17 106.93C31.4162 106.93 0 138.346 0 177.1C0 215.854 31.4162 247.27 70.17 247.27Z" fill="#FFE27A"/>
<path d="M127.151 73.27V0H11.4707V73.27L46.1707 103.73C49.1548 102.595 52.2633 101.82 55.4307 101.42L19.1807 69.8V7.71H119.441V69.8L82.8007 101.42C85.8907 102.19 88.9707 102.57 92.0607 103.73L127.151 73.27Z" fill="url(#paint0_linear_20728_7086)"/>
<path d="M26.8906 15.42V66.33L65.8906 100.26H72.4406L111.781 66.33V15.42H26.8906Z" fill="url(#paint1_linear_20728_7086)"/>
<path d="M69.3106 118.24C57.8393 118.24 46.6255 121.642 37.0875 128.015C27.5494 134.388 20.1154 143.446 15.7256 154.044C11.3357 164.642 10.1871 176.304 12.425 187.555C14.663 198.806 20.1869 209.141 28.2984 217.252C36.4098 225.364 46.7444 230.888 57.9953 233.126C69.2462 235.363 80.9081 234.215 91.5062 229.825C102.104 225.435 111.163 218.001 117.536 208.463C123.909 198.925 127.311 187.711 127.311 176.24C127.311 160.857 121.2 146.105 110.323 135.228C99.4457 124.351 84.6931 118.24 69.3106 118.24ZM78.8806 206.86C78.917 207.192 78.8784 207.528 78.7677 207.843C78.6569 208.158 78.4769 208.444 78.2407 208.68C78.0046 208.916 77.7185 209.096 77.4034 209.207C77.0884 209.318 76.7525 209.356 76.4206 209.32H65.2606C64.929 209.355 64.594 209.315 64.2798 209.203C63.9656 209.092 63.6803 208.912 63.4446 208.676C63.2089 208.44 63.0288 208.155 62.9174 207.841C62.8059 207.527 62.766 207.192 62.8006 206.86V162.73L51.3606 169C49.7006 169.94 48.3606 169.18 48.3606 167.3V156.13C48.3347 155.534 48.4801 154.943 48.7796 154.428C49.0791 153.912 49.5202 153.493 50.0506 153.22L61.3706 147.08C62.2774 146.545 63.3185 146.282 64.3706 146.32H76.3706C76.7021 146.285 77.0372 146.325 77.3513 146.437C77.6655 146.548 77.9508 146.728 78.1865 146.964C78.4222 147.2 78.6024 147.485 78.7138 147.799C78.8252 148.113 78.8651 148.448 78.8306 148.78L78.8806 206.86Z" fill="#FFBA57"/>
<path d="M127 173C94.0638 265.5 20.5003 222 11.5003 173C9.49952 219 50.5 236 73.4663 234.919C117.442 228.622 129 192.5 127 173Z" fill="#FFAC3E"/>
<path d="M139.5 188C106 275 14.5 245.5 1 188C7.85712 230 46 248.701 71.5 247.5C111.5 245.617 135.5 215.5 139.5 188Z" fill="#F9CF58"/>
<g opacity="0.8" filter="url(#filter0_d_20728_7086)">
<path d="M89.2941 31.1373H73.6758V38.661H89.2941V31.1373Z" fill="white"/>
<path d="M90.7162 56.4827V53.3658C90.7162 49.7753 87.6966 46.8656 83.9749 46.8656H58.7691V44.8144H49.541V53.6957H81.4882V56.4827H90.7162Z" fill="white"/>
<path opacity="0.6" d="M58.7691 42.3573V38.661H71.1267V31.1373H49.541V42.3573H58.7691Z" fill="white"/>
<path opacity="0.6" d="M81.4885 58.9018V63.2917H69.1309V70.8154H84.3559C86.009 70.8414 87.605 70.211 88.7941 69.0623C89.9833 67.9136 90.6685 66.3403 90.6996 64.6873V58.9018H81.4885Z" fill="white"/>
<path d="M58.0284 59.3078V63.2917H66.5798V70.8154H55.584C53.9309 70.8414 52.3348 70.211 51.1457 69.0623C49.9566 67.9136 49.2714 66.3403 49.2402 64.6873V59.3078H58.0284Z" fill="white"/>
</g>
</g>
<defs>
<filter id="filter0_d_20728_7086" x="45.2402" y="29.1373" width="49.4766" height="47.6788" filterUnits="userSpaceOnUse" color-interpolation-filters="sRGB">
<feFlood flood-opacity="0" result="BackgroundImageFix"/>
<feColorMatrix in="SourceAlpha" type="matrix" values="0 0 0 0 0 0 0 0 0 0 0 0 0 0 0 0 0 0 127 0" result="hardAlpha"/>
<feOffset dy="2"/>
<feGaussianBlur stdDeviation="2"/>
<feComposite in2="hardAlpha" operator="out"/>
<feColorMatrix type="matrix" values="0 0 0 0 0 0 0 0 0 0 0 0 0 0 0 0 0 0 0.25 0"/>
<feBlend mode="normal" in2="BackgroundImageFix" result="effect1_dropShadow_20728_7086"/>
<feBlend mode="normal" in="SourceGraphic" in2="effect1_dropShadow_20728_7086" result="shape"/>
</filter>
<linearGradient id="paint0_linear_20728_7086" x1="69.3107" y1="0" x2="69.3107" y2="103.73" gradientUnits="userSpaceOnUse">
<stop stop-color="#00D3A9"/>
<stop offset="1" stop-color="#008778"/>
</linearGradient>
<linearGradient id="paint1_linear_20728_7086" x1="69.3356" y1="15.42" x2="69.3356" y2="100.26" gradientUnits="userSpaceOnUse">
<stop stop-color="#00D3A9"/>
<stop offset="1" stop-color="#008072"/>
</linearGradient>
<clipPath id="clip0_20728_7086">
<rect width="140.35" height="247.28" fill="white"/>
</clipPath>
</defs>
</svg>
