<?xml version="1.0" encoding="UTF-8"?>
<svg id="Layer_1" xmlns="http://www.w3.org/2000/svg" version="1.1" viewBox="0 0 32 32">
  <!-- Generator: Adobe Illustrator 29.1.0, SVG Export Plug-In . SVG Version: 2.1.0 Build 142)  -->
  <defs>
    <style>
      .st0 {
        fill: none;
      }

      .st1 {
        fill: #00b39f;
      }

      .st2 {
        fill: #00d3a9;
      }
    </style>
  </defs>
  <line class="st0" x1="15" y1="21.5" x2="17" y2="21.5"/>
  <circle cx="16" cy="8" r="8"/>
  <path d="M22,18l-3,12h-6l-3-12c-4.5.2-8,3.9-8,8.4v2.6c0,1.7,1.3,3,3,3h22c1.7,0,3-1.3,3-3v-2.6c0-4.5-3.6-8.2-8-8.4Z"/>
  <polygon class="st2" points="17 21.5 15 21.5 13 30 19 30 17 21.5"/>
  <polygon class="st1" points="19 18 13 18 15 21.5 17 21.5 19 18"/>
</svg>