<svg width="30" height="50" viewBox="0 0 140 247" fill="none" xmlns="http://www.w3.org/2000/svg">
<g clip-path="url(#clip0_20728_7102)">
<path d="M128.416 73.8681V0H11.584V73.8681L46.6294 104.577C49.6433 103.433 52.7827 102.651 55.9816 102.248L19.3707 70.3698V7.77294H120.629V70.3698L83.6241 102.248C86.7449 103.024 89.8555 103.407 92.9763 104.577L128.416 73.8681Z" fill="url(#paint0_linear_20728_7102)"/>
<path d="M27.1582 15.5459V66.8715L66.5465 101.078H73.1617L112.893 66.8715V15.5459H27.1582Z" fill="url(#paint1_linear_20728_7102)"/>
<path d="M70 247C108.66 247 140 215.716 140 177.124C140 138.533 108.66 107.248 70 107.248C31.3401 107.248 0 138.533 0 177.124C0 215.716 31.3401 247 70 247Z" fill="#E0E0E0"/>
<path d="M69.9993 118.651C58.4138 118.651 47.0884 122.08 37.4554 128.505C27.8224 134.93 20.3144 144.063 15.8808 154.747C11.4473 165.432 10.2872 177.189 12.5474 188.532C14.8077 199.875 20.3866 210.294 28.5788 218.471C36.771 226.649 47.2085 232.218 58.5714 234.474C69.9343 236.73 81.7123 235.572 92.4159 231.147C103.12 226.721 112.268 219.226 118.705 209.61C125.141 199.994 128.577 188.689 128.577 177.124C128.577 161.616 122.405 146.743 111.42 135.777C100.434 124.811 85.535 118.651 69.9993 118.651ZM90.6529 207.994C90.6897 208.329 90.6507 208.667 90.5389 208.985C90.427 209.303 90.2452 209.591 90.0067 209.829C89.7682 210.067 89.4792 210.249 89.161 210.36C88.8429 210.472 88.5036 210.511 88.1684 210.474H48.6085C48.2732 210.511 47.934 210.472 47.6158 210.36C47.2976 210.249 47.0086 210.067 46.7702 209.829C46.5317 209.591 46.3498 209.303 46.238 208.985C46.1261 208.667 46.0872 208.329 46.124 207.994V200.443C46.1214 199.88 46.2318 199.323 46.4487 198.803C46.6655 198.284 46.9843 197.813 47.3864 197.419L67.3027 176.902C70.7972 173.273 73.514 169.845 73.514 166.649C73.514 163.454 71.797 161.417 68.3026 161.417C65.3333 161.417 63.4346 162.586 62.7074 165.046C62.1823 166.549 61.546 167.315 60.0512 167.315H48.6489C48.3071 167.354 47.9608 167.314 47.6376 167.196C47.3143 167.079 47.0229 166.888 46.7866 166.638C46.5503 166.389 46.3756 166.087 46.2763 165.759C46.1771 165.43 46.156 165.082 46.2149 164.744C47.4268 151.335 57.6779 145.659 67.7168 145.659C78.8263 145.659 89.7439 152.011 89.7439 166.528C89.7439 173.515 85.391 180.31 79.8666 185.855L70.777 194.858H88.1684C88.5032 194.823 88.8416 194.863 89.1589 194.976C89.4762 195.088 89.7644 195.269 90.0025 195.507C90.2405 195.745 90.4224 196.032 90.5349 196.349C90.6475 196.666 90.6878 197.004 90.6529 197.338V207.994Z" fill="#9E9E9E"/>
<path d="M128.402 171.826C102.5 263 19 228.5 11.5968 171.826C8.90447 216.641 47.4256 237.293 71.2418 235.848C114.112 233.163 130.473 198.467 128.402 171.826Z" fill="#898989"/>
<path d="M139.378 187.109C105.545 274.819 15.1181 244.935 0.621094 186.902C7.24831 229.652 45.0974 247.919 71.2017 247C112.248 245.554 135.339 214.833 139.378 187.109Z" fill="#CECECE"/>
<g opacity="0.8" filter="url(#filter0_d_20728_7102)">
<path d="M89.2941 31.1373H73.6758V38.661H89.2941V31.1373Z" fill="white"/>
<path d="M90.7162 56.4827V53.3658C90.7162 49.7753 87.6966 46.8656 83.9749 46.8656H58.7691V44.8144H49.541V53.6957H81.4882V56.4827H90.7162Z" fill="white"/>
<path opacity="0.6" d="M58.7691 42.3573V38.661H71.1267V31.1373H49.541V42.3573H58.7691Z" fill="white"/>
<path opacity="0.6" d="M81.4885 58.9018V63.2917H69.1309V70.8154H84.3559C86.009 70.8414 87.605 70.211 88.7941 69.0623C89.9833 67.9136 90.6685 66.3403 90.6996 64.6873V58.9018H81.4885Z" fill="white"/>
<path d="M58.0284 59.3078V63.2917H66.5798V70.8154H55.584C53.9309 70.8414 52.3348 70.211 51.1457 69.0623C49.9566 67.9136 49.2714 66.3403 49.2402 64.6873V59.3078H58.0284Z" fill="white"/>
</g>
</g>
<defs>
<filter id="filter0_d_20728_7102" x="45.2402" y="29.1373" width="49.4766" height="47.6788" filterUnits="userSpaceOnUse" color-interpolation-filters="sRGB">
<feFlood flood-opacity="0" result="BackgroundImageFix"/>
<feColorMatrix in="SourceAlpha" type="matrix" values="0 0 0 0 0 0 0 0 0 0 0 0 0 0 0 0 0 0 127 0" result="hardAlpha"/>
<feOffset dy="2"/>
<feGaussianBlur stdDeviation="2"/>
<feComposite in2="hardAlpha" operator="out"/>
<feColorMatrix type="matrix" values="0 0 0 0 0 0 0 0 0 0 0 0 0 0 0 0 0 0 0.25 0"/>
<feBlend mode="normal" in2="BackgroundImageFix" result="effect1_dropShadow_20728_7102"/>
<feBlend mode="normal" in="SourceGraphic" in2="effect1_dropShadow_20728_7102" result="shape"/>
</filter>
<linearGradient id="paint0_linear_20728_7102" x1="69.9998" y1="0" x2="69.9998" y2="104.577" gradientUnits="userSpaceOnUse">
<stop stop-color="#00D3A9"/>
<stop offset="1" stop-color="#008C7C"/>
</linearGradient>
<linearGradient id="paint1_linear_20728_7102" x1="70.0258" y1="15.5459" x2="70.0258" y2="101.078" gradientUnits="userSpaceOnUse">
<stop stop-color="#00D3A9"/>
<stop offset="1" stop-color="#008C7C"/>
</linearGradient>
<clipPath id="clip0_20728_7102">
<rect width="140" height="247" fill="white"/>
</clipPath>
</defs>
</svg>
