<?xml version="1.0" encoding="utf-8"?>
<!-- Generator: Adobe Illustrator 26.0.2, SVG Export Plug-In . SVG Version: 6.00 Build 0)  -->
<svg version="1.1" id="Layer_1" xmlns="http://www.w3.org/2000/svg" xmlns:xlink="http://www.w3.org/1999/xlink" x="0px" y="0px"
	 viewBox="0 0 430 46" style="enable-background:new 0 0 430 46;" xml:space="preserve">
<style type="text/css">
	.st0{display:none;stroke:#FFFFFF;stroke-miterlimit:10;}
	.st1{fill:#FFFFFF;}
	.st2{fill:#00D3A9;}
	.st3{fill:#00B39F;}
</style>
<rect x="-44.7" y="-137.3" class="st0" width="624.5" height="301.9"/>
<polygon class="st1" points="321,9.5 315.7,9.5 315.7,36.3 341,36.3 341,30.9 321,30.9 "/>
<path class="st1" d="M290.7,31.7H312v4.5h-21.3"/>
<path class="st1" d="M285.2,31.7c0.6,2.7,2.9,4.6,5.6,4.5v-4.5H285.2z"/>
<path class="st1" d="M292.4,9.5c-1,0-1.9,0.1-2.8,0.5c-0.8,0.3-1.6,0.7-2.3,1.2c-0.6,0.5-1.1,1.1-1.5,1.8c-0.4,0.8-0.6,1.7-0.6,2.6
	v13.6h5.8V15.3c0-0.2,0-0.3,0.1-0.5c0.1-0.2,0.2-0.3,0.3-0.4c0.2-0.1,0.3-0.2,0.5-0.3c0.2-0.1,0.4-0.1,0.6-0.1h19.6V9.5H292.4z"/>
<path class="st1" d="M348.5,21.6v-5.5c0-0.8,0.6-1.4,1.4-1.4l0,0h14.4c0.8,0,1.4,0.6,1.4,1.4c0,0,0,0,0,0v5.5h4.8v-7.4
	c0-2.6-2.1-4.6-4.7-4.6h-17.4c-2.6,0-4.6,2.1-4.7,4.6v7.4H348.5z"/>
<path class="st1" d="M365.7,24.2v5.5c0,0.8-0.6,1.4-1.4,1.4h-14.4c-0.8,0-1.4-0.6-1.4-1.4v-5.5h-4.8v7.4c0,2.6,2.1,4.6,4.7,4.6h17.4
	c2.6,0,4.6-2.1,4.7-4.6v-7.4H365.7z"/>
<path class="st1" d="M396.1,9.5H396v20.1c0,0.8-0.6,1.4-1.4,1.4h-14.4c-0.8,0-1.4-0.6-1.4-1.4V9.5h-0.1c-2.6,0-4.6,2.1-4.7,4.6v17.4
	c0,2.6,2.1,4.6,4.7,4.6h17.4c2.6,0,4.6-2.1,4.7-4.6V14.2C400.7,11.6,398.6,9.5,396.1,9.5z"/>
<path class="st1" d="M425.2,9.5h-17.4c-2.6,0-4.6,2.1-4.6,4.6v22.1h22.1c2.6,0,4.7-2.1,4.7-4.6V14.2C429.8,11.6,427.7,9.5,425.2,9.5
	z M425.1,29.7c0,0.8-0.6,1.4-1.4,1.4h-15.8V16.2c0-0.8,0.6-1.4,1.4-1.4h14.4c0.8,0,1.4,0.6,1.4,1.4L425.1,29.7z"/>
<g>
	<g>
		
			<image style="overflow:visible;opacity:0.5;" width="53" height="53" xlink:href="76325EA8D03E8CA.png"  transform="matrix(1 0 0 1 -2.1748 -2.7273)">
		</image>
		<g>
			<g>
				<polygon class="st2" points="24.1,10.9 24.1,21.8 33.6,16.3 				"/>
				<polygon class="st2" points="24.1,24.1 24.1,35.1 33.6,29.6 				"/>
				<polygon class="st3" points="22.7,21.8 22.7,11 13.4,16.4 				"/>
				<path class="st3" d="M3.9,35.1c1.8,3,4.3,5.5,7.3,7.3V30.9L3.9,35.1z"/>
				<polygon class="st3" points="22.7,35.1 22.7,24.2 13.3,29.6 				"/>
				<polygon class="st2" points="12.6,41.7 22.1,36.3 12.6,30.8 				"/>
				<polygon class="st3" points="34.3,41.7 34.3,30.8 24.8,36.3 				"/>
				<path class="st3" d="M43.6,33.8c1.6-2.9,2.5-6.3,2.7-9.8l-9.9,5.7L43.6,33.8z"/>
				<polygon class="st2" points="35.7,28.5 45.2,23 35.7,17.6 				"/>
				<polygon class="st3" points="34.3,15.2 34.3,4.4 24.9,9.8 				"/>
				<polygon class="st3" points="34.3,28.4 34.3,17.5 24.8,23 				"/>
				<polygon class="st3" points="23.4,45.9 23.4,45.9 23.4,45.9 				"/>
				<polygon class="st2" points="12.6,17.5 12.6,28.5 22.1,23 				"/>
				<path class="st3" d="M22.7,0.1c-3.6,0.1-7,1.1-10,2.7l10,5.8V0.1z"/>
				<polygon class="st2" points="12.6,4.3 12.6,15.2 22.1,9.8 				"/>
				<path class="st3" d="M11.2,3.6C8.3,5.5,5.8,8,3.9,10.9l7.3,4.2V3.6z"/>
				<path class="st2" d="M34.2,2.8c-3-1.6-6.5-2.6-10.1-2.7v8.5L34.2,2.8z"/>
				<path class="st2" d="M0.5,23.8c0.1,3.6,1.1,7.1,2.7,10.1l7.4-4.3L0.5,23.8z"/>
				<path class="st2" d="M3.3,12.1c-1.6,3-2.6,6.4-2.7,10l10.1-5.8L3.3,12.1z"/>
				<path class="st3" d="M12.7,43.2c3,1.6,6.4,2.6,10.1,2.7v-8.4L12.7,43.2z"/>
				<path class="st2" d="M42.9,11c-1.8-2.9-4.3-5.4-7.2-7.3v11.5L42.9,11z"/>
				<path class="st2" d="M35.7,42.3c2.9-1.9,5.4-4.4,7.2-7.4l-7.2-4.2V42.3z"/>
				<path class="st3" d="M46.3,22.1c-0.1-3.6-1.1-7-2.7-10l-7.3,4.2L46.3,22.1z"/>
				<path class="st2" d="M24.1,45.9c3.6-0.1,7-1.1,10-2.7l-10-5.8V45.9z"/>
				<polygon class="st3" points="11.2,28.4 11.2,17.6 1.8,23 				"/>
			</g>
		</g>
	</g>
	<g>
		<polygon class="st1" points="190,13.8 190,15 190,20.3 190,26.8 190,36.4 215.3,36.4 215.3,31 195.3,31 195.3,26.8 195.3,25.7 
			210.7,25.7 210.7,20.3 195.3,20.3 195.3,15 215.3,15 215.3,9.6 190,9.6 		"/>
		<polygon class="st1" points="92.4,13.8 92.4,15 92.4,20.3 92.4,26.8 92.4,36.4 117.8,36.4 117.8,31 97.8,31 97.8,26.8 97.8,25.7 
			113.2,25.7 113.2,20.3 97.8,20.3 97.8,15 117.8,15 117.8,9.6 92.4,9.6 		"/>
		<g>
			<path class="st1" d="M152.9,29.4c0,1-0.2,1.9-0.6,2.7c-0.4,0.9-0.9,1.6-1.5,2.2c-0.6,0.6-1.4,1.1-2.2,1.5
				c-0.9,0.4-1.8,0.6-2.7,0.6h-25v-5.6h25c0.4,0,0.7-0.1,1-0.4c0.3-0.3,0.4-0.6,0.4-1v-2.2c0-0.4-0.1-0.7-0.4-1
				c-0.3-0.3-0.6-0.4-1-0.4h-18c-1,0-1.9-0.2-2.7-0.6c-0.9-0.4-1.6-0.9-2.2-1.5c-0.6-0.6-1.1-1.4-1.5-2.2c-0.4-0.8-0.6-1.7-0.6-2.7
				v-2.2c0-1,0.2-1.9,0.6-2.7c0.4-0.8,0.9-1.6,1.5-2.2c0.6-0.6,1.4-1.1,2.2-1.5c0.8-0.4,1.7-0.6,2.7-0.6h25v5.7h-25
				c-0.4,0-0.7,0.1-1,0.4c-0.3,0.3-0.4,0.6-0.4,1v2.2c0,0.4,0.1,0.7,0.4,1c0.3,0.3,0.6,0.4,1,0.4h18c1,0,1.9,0.2,2.7,0.6
				c0.8,0.4,1.6,0.9,2.2,1.5c0.6,0.6,1.1,1.4,1.5,2.2c0.4,0.9,0.6,1.8,0.6,2.7V29.4z"/>
		</g>
		<g>
			<path class="st1" d="M186.6,36.4h-5.1V25.9h-19.9v10.5h-5.1V20.2h25V9.6h5.1V36.4z M161.6,17.7h-5.1v-8h5.1V17.7z"/>
		</g>
		<polygon class="st1" points="259.4,19 252.7,9.6 246,9.6 256.7,25.7 256.7,36.4 262.1,36.4 262.1,25.7 272.8,9.6 266.2,9.6 		"/>
		<path class="st1" d="M224.4,14.7h13.7v1.9v1.9v1.9h-11v5.1h2.5l9.7,11h6.6l-9.7-11h3.4c0.1,0,0.2,0,0.4,0c2.3,0,4.2-1.9,4.2-4.2
			v-2.8v-1.9v-2.8c0-2.3-1.9-4.2-4.2-4.2c-0.1,0-0.2,0-0.4,0h-15.3h-0.1h-5v26.7h5.3L224.4,14.7z"/>
		<g>
			<path class="st1" d="M87.8,14.1c-1.1-2.6-3.8-4.5-6.7-4.4H54.9v5.7v21.1h5.7V15.3c7.8,0,20.8-0.1,21.1,0.1c2-0.6,0.6,20.2,1,20.9
				h5.7C88.1,34.5,88.9,15.3,87.8,14.1z"/>
			<rect x="68.8" y="18.3" class="st1" width="5.7" height="18.1"/>
		</g>
	</g>
</g>
</svg>
